<svg width="20" height="20" viewBox="0 0 20 20" fill="none" xmlns="http://www.w3.org/2000/svg">
    <path d="M19 18H11V3C11 2.20435 11.3161 1.44129 11.8787 0.87868C12.4413 0.316071 13.2044 0 14 0H19C19.2652 0 19.5196 0.105357 19.7071 0.292893C19.8946 0.48043 20 0.734784 20 1V17C20 17.2652 19.8946 17.5196 19.7071 17.7071C19.5196 17.8946 19.2652 18 19 18ZM9 18H1C0.734784 18 0.48043 17.8946 0.292893 17.7071C0.105357 17.5196 0 17.2652 0 17V1C0 0.734784 0.105357 0.48043 0.292893 0.292893C0.48043 0.105357 0.734784 0 1 0H6C6.79565 0 7.55871 0.316071 8.12132 0.87868C8.68393 1.44129 9 2.20435 9 3V18ZM9 18H11V20H9V18Z" fill="white"/>
</svg>
