<svg width="40" height="40" viewBox="0 0 40 40" fill="none" xmlns="http://www.w3.org/2000/svg">
    <path d="M20 0V20L5.85437 5.85437C9.47573 2.24272 14.4757 0 20 0Z" fill="#B6D07C"/>
    <path d="M5.85437 5.85437L20 20H0C0 14.8835 1.95145 9.76699 5.85437 5.85437Z" fill="#6BC2FA"/>
    <path d="M0 20H20L5.85437 34.1456C2.24272 30.5243 0 25.5243 0 20Z" fill="#4CA5E7"/>
    <path d="M5.85437 34.1456L20 20V40C14.8835 40 9.76699 38.0485 5.85437 34.1456Z" fill="#2F63BB"/>
    <path d="M20 40V20L34.1456 34.1456C30.5243 37.7573 25.5243 40 20 40Z" fill="#E33B77"/>
    <path d="M34.1456 34.1456L20 20H40C40 25.1165 38.0485 30.233 34.1456 34.1456Z" fill="#EE7F71"/>
    <path d="M40 20H20L34.1456 5.85437C37.7573 9.47573 40 14.4757 40 20Z" fill="#F4B860"/>
    <path d="M34.1456 5.85437L20 20V0C25.1165 0 30.233 1.95145 34.1456 5.85437Z" fill="#FAE487"/>
</svg>
