<svg width="37" height="37" viewBox="0 0 37 37" fill="none" xmlns="http://www.w3.org/2000/svg">
    <path d="M13.37 3.73C12.087 6.5151 11.6884 9.62652 12.2279 12.6451C12.7673 15.6637 14.219 18.4444 16.3873 20.6127C18.5556 22.781 21.3363 24.2327 24.3549 24.7721C27.3735 25.3116 30.4849 24.913 33.27 23.63C31.6133 31.09 24.9583 36.6667 17 36.6667C7.795 36.6667 0.333328 29.205 0.333328 20C0.333328 12.0417 5.90999 5.38667 13.37 3.73ZM27.2733 3.81833L28.6667 4.16667V5.83333L27.2733 6.18167C26.6873 6.32822 26.1522 6.63126 25.725 7.05838C25.2979 7.48551 24.9949 8.02067 24.8483 8.60667L24.5 10H22.8333L22.485 8.60667C22.3384 8.02067 22.0354 7.48551 21.6083 7.05838C21.1812 6.63126 20.646 6.32822 20.06 6.18167L18.6667 5.83333V4.16667L20.06 3.81833C20.6457 3.67151 21.1805 3.36836 21.6073 2.94125C22.0341 2.51415 22.3369 1.97913 22.4833 1.39333L22.8333 0H24.5L24.8483 1.39333C24.9949 1.97933 25.2979 2.51449 25.725 2.94162C26.1522 3.36874 26.6873 3.67178 27.2733 3.81833ZM35.6067 12.1517L37 12.5V14.1667L35.6067 14.515C35.0207 14.6616 34.4855 14.9646 34.0584 15.3917C33.6313 15.8188 33.3282 16.354 33.1817 16.94L32.8333 18.3333H31.1667L30.8183 16.94C30.6718 16.354 30.3687 15.8188 29.9416 15.3917C29.5145 14.9646 28.9793 14.6616 28.3933 14.515L27 14.1667V12.5L28.3933 12.1517C28.9793 12.0051 29.5145 11.7021 29.9416 11.275C30.3687 10.8478 30.6718 10.3127 30.8183 9.72667L31.1667 8.33333H32.8333L33.1817 9.72667C33.3282 10.3127 33.6313 10.8478 34.0584 11.275C34.4855 11.7021 35.0207 12.0051 35.6067 12.1517Z" fill="#FEBD27"/>
</svg>
