<svg width="20" height="20" viewBox="0 0 20 20" fill="none" xmlns="http://www.w3.org/2000/svg">
    <path d="M9.38 0.0190125C8.64313 0.705633 8.05211 1.53364 7.64219 2.45363C7.23227 3.37362 7.01185 4.36676 6.99408 5.37379C6.97632 6.38082 7.16156 7.38111 7.53877 8.31499C7.91598 9.24887 8.47743 10.0972 9.18962 10.8094C9.9018 11.5216 10.7501 12.083 11.684 12.4602C12.6179 12.8375 13.6182 13.0227 14.6252 13.0049C15.6323 12.9872 16.6254 12.7667 17.5454 12.3568C18.4654 11.9469 19.2934 11.3559 19.98 10.619C19.8234 13.1592 18.7039 15.544 16.8496 17.2871C14.9953 19.0303 12.546 20.0005 10.001 20C4.477 20 0 15.523 0 10C0 4.68501 4.146 0.339012 9.38 0.0190125Z" fill="white"/>
</svg>
