<svg width="24" height="23" viewBox="0 0 24 23" fill="none" xmlns="http://www.w3.org/2000/svg">
    <path d="M11.999 0.5L16.225 6.683L23.411 8.792L18.836 14.722L19.052 22.208L11.999 19.69L4.945 22.208L5.161 14.722L0.585999 8.792L7.773 6.683L11.999 0.5ZM9.999 12H7.999C7.99898 13.0436 8.40679 14.0458 9.1354 14.7929C9.86401 15.54 10.8557 15.9727 11.899 15.9988C12.9422 16.0249 13.9543 15.6423 14.7194 14.9326C15.4844 14.2228 15.9418 13.2422 15.994 12.2L15.999 12H13.999C14.0013 12.519 13.8018 13.0185 13.4426 13.3932C13.0834 13.7678 12.5927 13.9881 12.0741 14.0075C11.5554 14.027 11.0496 13.8441 10.6633 13.4975C10.277 13.1509 10.0406 12.6677 10.004 12.15L10 12H9.999Z" fill="white"/>
</svg>
